P3
4 4
255
63
79
17
174
158
133
86
77
58
56
70
12
112
112
91
237
217
209
85
56
38
40
51
16
37
36
18
255
227
206
97
70
51
14
20
10
63
73
29
233
217
208
90
83
67
16
18
10
