P2
8 8
255
88
48
117
130
121
68
73
59
60
96
169
205
101
35
40
59
47
157
241
245
109
59
58
38
19
208
227
135
50
55
42
32
14
119
240
207
59
72
17
12
21
43
249
170
108
74
13
39
108
9
233
200
133
68
8
12
83
93
204
181
80
60
43
15
