P3
8 8
255
81
105
18
44
58
6
117
127
74
134
133
108
128
124
94
71
72
49
69
87
17
55
72
9
59
69
19
94
105
55
187
163
154
233
196
179
129
93
74
36
37
26
41
47
10
57
69
18
43
58
4
162
158
145
247
239
236
255
240
232
146
98
78
73
57
39
53
67
24
42
41
16
18
22
8
219
205
196
244
222
211
165
125
110
71
43
30
67
53
32
40
48
22
26
41
3
14
16
7
126
122
86
252
236
227
248
193
168
88
50
33
93
67
49
17
20
10
10
16
6
21
24
10
47
44
30
255
246
230
209
159
128
132
101
83
82
76
52
12
16
7
37
43
27
103
123
46
11
11
2
241
231
225
218
196
178
150
128
114
71
71
46
7
10
4
11
15
7
82
92
38
95
97
71
211
202
195
198
176
163
89
78
67
62
62
50
45
45
28
14
17
11
