P2
4 4
255
67
160
77
58
109
222
62
44
34
236
75
16
64
221
83
16
