P2
2 2
255
140
60
139
48
