P3
2 2
255
146
142
112
67
64
31
147
138
115
54
48
34
